<?xml version="1.0" standalone="no"?>
<!DOCTYPE svg PUBLIC "-//W3C//DTD SVG 20010904//EN"
 "http://www.w3.org/TR/2001/REC-SVG-20010904/DTD/svg10.dtd">
<svg version="1.0" xmlns="http://www.w3.org/2000/svg"
 width="100.000000pt" height="100.000000pt" viewBox="0 0 100.000000 100.000000"
 preserveAspectRatio="xMidYMid meet">

<!-- style>
path{
    fill: #000;
}
@media(prefers-color-scheme: dark){
    path{
        fill: #fff;
    }
}
</!-->

<g transform="translate(0.000000,100.000000) scale(0.100000,-0.100000)"
fill="#000000" stroke="none">
<path d="M386 945 c-213 -54 -360 -261 -342 -482 6 -79 40 -176 80 -228 l25
-32 -35 -34 c-36 -35 -42 -57 -22 -77 20 -20 42 -14 77 22 l34 35 32 -25 c125
-95 345 -107 485 -27 62 35 145 118 180 179 83 144 73 362 -24 489 l-25 32 35
34 c36 35 42 57 22 77 -20 20 -42 14 -77 -22 l-34 -35 -32 25 c-91 69 -257
100 -379 69z m266 -98 c104 -49 120 -20 -181 -321 l-269 -269 -31 54 c-121
213 -8 489 228 556 70 20 189 10 253 -20z m196 -197 c23 -47 27 -68 26 -145 0
-123 -26 -189 -108 -271 -123 -123 -305 -148 -455 -63 l-54 31 269 269 c301
302 272 285 322 179z"/>
</g>
</svg>
