<?xml version="1.0" standalone="no"?>
<!DOCTYPE svg PUBLIC "-//W3C//DTD SVG 20010904//EN"
 "http://www.w3.org/TR/2001/REC-SVG-20010904/DTD/svg10.dtd">
<svg version="1.0" xmlns="http://www.w3.org/2000/svg"
 width="700.000000pt" height="700.000000pt" viewBox="0 0 700.000000 700.000000"
 preserveAspectRatio="xMidYMid meet">
<metadata>
Created by potrace 1.14, written by Peter Selinger 2001-2017
</metadata>
<g transform="translate(0.000000,700.000000) scale(0.100000,-0.100000)"
fill="#000000" stroke="none">
<path d="M3249 6696 c-2 -2 -47 -6 -99 -10 -52 -3 -104 -8 -115 -10 -11 -2
-47 -7 -80 -12 -33 -4 -62 -8 -65 -9 -8 -2 -72 -14 -100 -20 -138 -27 -347
-93 -524 -167 -1035 -433 -1785 -1418 -1940 -2548 -21 -151 -26 -239 -27 -415
0 -191 11 -344 37 -495 4 -19 8 -48 10 -65 11 -88 85 -368 140 -533 116 -346
255 -611 444 -847 31 -38 68 -86 84 -107 l27 -36 -189 -189 c-237 -236 -297
-330 -284 -443 13 -116 146 -233 253 -224 111 10 195 68 418 292 l183 184 62
-48 c153 -120 256 -196 316 -233 372 -230 802 -372 1305 -430 126 -14 218 -18
435 -16 151 2 293 6 315 9 22 3 81 10 130 17 50 6 99 13 110 15 11 2 45 8 75
14 92 17 99 18 203 45 130 34 289 84 301 96 6 5 16 9 23 9 32 0 307 135 418
205 392 247 878 728 1127 1115 233 363 396 863 433 1331 4 41 8 90 10 109 5
41 6 409 1 460 -2 19 -6 76 -10 125 -4 50 -9 97 -11 105 -2 8 -7 35 -10 60
-55 409 -203 828 -418 1175 -16 26 -178 249 -186 255 -3 3 -25 30 -49 62 l-43
56 174 174 c237 235 296 321 299 432 2 63 -21 112 -76 169 -100 103 -207 107
-351 12 -33 -21 -143 -121 -244 -222 l-183 -183 -43 32 c-305 234 -326 248
-510 343 -336 174 -833 312 -1260 350 -65 6 -511 15 -516 11z m506 -570 c22
-3 60 -8 85 -11 105 -13 131 -17 250 -41 188 -38 351 -89 495 -154 33 -15 112
-51 175 -80 210 -96 264 -138 275 -213 13 -90 -39 -183 -225 -402 -137 -162
-184 -210 -1825 -1853 l-1571 -1574 -131 229 c-207 364 -279 529 -347 799 -57
227 -79 404 -80 634 0 136 11 336 18 349 2 3 7 33 10 66 4 33 11 76 16 95 5
19 11 49 13 65 3 17 12 59 22 95 117 454 336 861 640 1189 57 61 183 184 225
217 19 16 37 31 40 34 29 33 254 188 367 253 76 44 287 147 299 147 4 0 20 6
37 14 71 32 288 99 367 112 14 3 32 7 40 9 8 2 40 7 70 10 30 4 80 10 110 14
59 9 559 6 625 -3z m1923 -1112 c52 -34 100 -110 172 -274 55 -123 79 -176
129 -283 22 -48 44 -100 47 -115 4 -15 10 -31 14 -37 9 -13 41 -130 47 -170 2
-16 6 -36 8 -43 13 -37 20 -206 20 -472 0 -344 -10 -525 -35 -665 -5 -27 -12
-67 -15 -89 -3 -21 -17 -83 -30 -137 -92 -363 -264 -655 -587 -1001 -133 -142
-240 -239 -393 -354 -293 -221 -696 -405 -1026 -469 -65 -13 -138 -25 -174
-30 -22 -3 -69 -9 -105 -14 -69 -10 -510 -7 -570 3 -19 3 -66 11 -105 17 -268
44 -562 140 -795 262 -95 49 -480 270 -477 273 24 27 2927 2930 3049 3049 357
351 559 516 685 560 47 17 105 12 141 -11z"/>
</g>
</svg>
